<?xml version="1.0" encoding="UTF-8" standalone="no"?>
<svg
   xmlns:dc="http://purl.org/dc/elements/1.1/"
   xmlns:cc="http://creativecommons.org/ns#"
   xmlns:rdf="http://www.w3.org/1999/02/22-rdf-syntax-ns#"
   xmlns:svg="http://www.w3.org/2000/svg"
   xmlns="http://www.w3.org/2000/svg"
   xmlns:sodipodi="http://sodipodi.sourceforge.net/DTD/sodipodi-0.dtd"
   xmlns:inkscape="http://www.inkscape.org/namespaces/inkscape"
   version="1.1"
   id="icon-users"
   x="0px"
   y="0px"
   width="50px"
   height="50px"
   viewBox="0 0 50 50"
   enable-background="new 0 0 50 50"
   xml:space="preserve"
   inkscape:version="0.91 r13725"
   sodipodi:docname="icon.svg"><metadata
     id="metadata3474"><rdf:RDF><cc:Work
         rdf:about=""><dc:format>image/svg+xml</dc:format><dc:type
           rdf:resource="http://purl.org/dc/dcmitype/StillImage" /></cc:Work></rdf:RDF></metadata><defs
     id="defs3472"><linearGradient
       y2="1"
       id="svg_1"><stop
         id="stop4766"
         offset="0"
         stop-color="#e8e8e8" /><stop
         id="stop4768"
         offset="1"
         stop-color="#171717" /></linearGradient><linearGradient
       spreadMethod="pad"
       x2="1"
       y1="0"
       x1="0"
       y2="1"
       id="svg_2"><stop
         id="stop4771"
         offset="0"
         stop-color="#e8e8e8" /><stop
         id="stop4773"
         offset="1"
         stop-color="#171717" /></linearGradient><linearGradient
       spreadMethod="pad"
       x2="1"
       y1="0.363281"
       x1="0.488281"
       y2="1"
       id="svg_3"><stop
         id="stop4776"
         offset="0"
         stop-color="#e8e8e8" /><stop
         id="stop4778"
         offset="1"
         stop-color="#171717" /></linearGradient><linearGradient
       spreadMethod="pad"
       x2="1"
       y1="0"
       x1="0"
       y2="1"
       id="svg_4"><stop
         id="stop4781"
         offset="0"
         stop-opacity="0.996094"
         stop-color="#efefef" /><stop
         id="stop4783"
         offset="1"
         stop-opacity="0.996094"
         stop-color="#828282" /></linearGradient><linearGradient
       spreadMethod="pad"
       x2="1"
       y1="0"
       x1="0"
       y2="1"
       id="svg_5"><stop
         id="stop4786"
         offset="0"
         stop-opacity="0.992188"
         stop-color="#ffffff" /><stop
         id="stop4788"
         offset="1"
         stop-opacity="0.996094"
         stop-color="#828282" /></linearGradient><linearGradient
       spreadMethod="pad"
       x2="1"
       y1="0"
       x1="0"
       y2="1"
       id="svg_6"><stop
         id="stop4791"
         offset="0"
         stop-opacity="0.992188"
         stop-color="#ffffff" /><stop
         id="stop4793"
         offset="1"
         stop-opacity="0.996094"
         stop-color="#828282" /><stop
         id="stop4795"
         offset="1"
         stop-opacity="0.996094"
         stop-color="#828282" /></linearGradient><linearGradient
       spreadMethod="pad"
       x2="1"
       y1="0"
       x1="0"
       y2="1"
       id="svg_7"><stop
         id="stop4798"
         offset="0"
         stop-opacity="0.988281"
         stop-color="#ffffff" /><stop
         id="stop4800"
         offset="1"
         stop-opacity="0.992188"
         stop-color="#cccccc" /><stop
         id="stop4802"
         offset="1"
         stop-opacity="0.996094"
         stop-color="#828282" /><stop
         id="stop4804"
         offset="1"
         stop-opacity="0.996094"
         stop-color="#828282" /><stop
         id="stop4806"
         offset="1"
         stop-opacity="0.996094"
         stop-color="#828282" /></linearGradient><linearGradient
       spreadMethod="pad"
       x2="1"
       y1="0"
       x1="0"
       y2="1"
       id="svg_8"><stop
         id="stop4809"
         offset="0"
         stop-opacity="0.988281"
         stop-color="#ffffff" /><stop
         id="stop4811"
         offset="1"
         stop-opacity="0.992188"
         stop-color="#cccccc" /><stop
         id="stop4813"
         offset="1"
         stop-opacity="0.992188"
         stop-color="#cccccc" /><stop
         id="stop4815"
         offset="1"
         stop-opacity="0.996094"
         stop-color="#828282" /><stop
         id="stop4817"
         offset="1"
         stop-opacity="0.996094"
         stop-color="#828282" /><stop
         id="stop4819"
         offset="1"
         stop-opacity="0.996094"
         stop-color="#828282" /></linearGradient><linearGradient
       id="svg_9"><stop
         id="stop4822"
         offset="0"
         stop-color="#ffffff" /><stop
         id="stop4824"
         offset="1"
         stop-color="#000000" /></linearGradient><linearGradient
       id="svg_10"><stop
         id="stop4827"
         offset="0"
         stop-color="#ffffff" /><stop
         id="stop4829"
         offset="1"
         stop-opacity="0.996094"
         stop-color="#dddddd" /></linearGradient><linearGradient
       y2="1"
       x2="1"
       y1="0"
       x1="0"
       id="svg_11"><stop
         id="stop4832"
         offset="0"
         stop-color="#ffffff" /><stop
         id="stop4834"
         offset="1"
         stop-opacity="0.996094"
         stop-color="#dddddd" /></linearGradient><linearGradient
       y2="1"
       x2="1"
       y1="0"
       x1="0"
       id="svg_12"><stop
         id="stop4837"
         offset="0"
         stop-color="#ffffff" /><stop
         id="stop4839"
         offset="1"
         stop-opacity="0.992188"
         stop-color="#f2f2f2" /></linearGradient><linearGradient
       y2="1"
       x2="1"
       id="svg_13"><stop
         id="stop4842"
         offset="0"
         stop-opacity="0.996094"
         stop-color="#ffffff" /><stop
         id="stop4844"
         offset="1"
         stop-opacity="0.996094"
         stop-color="#c1c1c1" /></linearGradient><linearGradient
       y1="0"
       x1="0"
       y2="1"
       x2="1"
       id="svg_14"><stop
         id="stop4847"
         offset="0"
         stop-opacity="0.996094"
         stop-color="#ffffff" /><stop
         id="stop4849"
         offset="1"
         stop-opacity="0.996094"
         stop-color="#c1c1c1" /></linearGradient><linearGradient
       y2="1"
       x2="1"
       id="svg_16"><stop
         id="stop4857"
         offset="0"
         stop-color="#ffffff" /><stop
         id="stop4859"
         offset="1"
         stop-color="#000000" /></linearGradient><linearGradient
       y1="0"
       x1="0"
       y2="1"
       x2="1"
       id="svg_17"><stop
         id="stop4862"
         offset="0"
         stop-color="#ffffff" /><stop
         id="stop4864"
         offset="1"
         stop-opacity="0.996094"
         stop-color="#e0e0e0" /></linearGradient><linearGradient
       y1="0"
       x1="0"
       y2="1"
       x2="1"
       id="svg_18"><stop
         id="stop4867"
         offset="0"
         stop-color="#ffffff" /><stop
         id="stop4869"
         offset="1"
         stop-opacity="0.992188"
         stop-color="#cecece" /></linearGradient></defs><sodipodi:namedview
     pagecolor="#ffffff"
     bordercolor="#666666"
     borderopacity="1"
     objecttolerance="10"
     gridtolerance="10"
     guidetolerance="10"
     inkscape:pageopacity="0"
     inkscape:pageshadow="2"
     inkscape:window-width="1920"
     inkscape:window-height="1017"
     id="namedview3470"
     showgrid="false"
     inkscape:zoom="8.4800001"
     inkscape:cx="49.686883"
     inkscape:cy="42.190995"
     inkscape:window-x="-8"
     inkscape:window-y="183"
     inkscape:window-maximized="1"
     inkscape:current-layer="icon-users"
     showguides="false"
     inkscape:guide-bbox="true"
     inkscape:snap-text-baseline="true"><sodipodi:guide
       position="-5.003114,59.537057"
       orientation="0,1"
       id="guide4280" /><sodipodi:guide
       position="-10.339769,50.698222"
       orientation="0,1"
       id="guide4282" /><sodipodi:guide
       position="-6.1705073,57.535811"
       orientation="0,1"
       id="guide4284" /><sodipodi:guide
       position="-6.5040482,52.532697"
       orientation="0,1"
       id="guide4286" /><sodipodi:guide
       position="1.0006228,54.533943"
       orientation="0,1"
       id="guide4288" /><sodipodi:guide
       position="39.386793,38.502359"
       orientation="1,0"
       id="guide4292" /><sodipodi:guide
       position="12.264151,32.783019"
       orientation="1,0"
       id="guide4294" /><inkscape:grid
       type="xygrid"
       id="grid4268" /><sodipodi:guide
       position="-6.4206629,25.766037"
       orientation="1,0"
       id="guide6030" /></sodipodi:namedview><linearGradient
     id="SVGID_1_"
     gradientUnits="userSpaceOnUse"
     x1="1095.707"
     y1="1590.3262"
     x2="1107.9801"
     y2="1615.3397"
     gradientTransform="matrix(1 0 0 1 -1090.3984 -1581.9609)"><stop
       offset="0"
       style="stop-color:#EAECEE"
       id="stop3451" /><stop
       offset="1"
       style="stop-color:#D7D8DA"
       id="stop3453" /></linearGradient><linearGradient
     id="SVGID_2_"
     gradientUnits="userSpaceOnUse"
     x1="1121.2383"
     y1="1585.1426"
     x2="1137.368"
     y2="1618.0168"
     gradientTransform="matrix(1 0 0 1 -1090.3984 -1581.9609)"><stop
       offset="0"
       style="stop-color:#EAECEE"
       id="stop3458" /><stop
       offset="1"
       style="stop-color:#D7D8DA"
       id="stop3460" /></linearGradient><text
     xml:space="preserve"
     style="font-style:normal;font-weight:normal;font-size:40px;line-height:125%;font-family:sans-serif;letter-spacing:0px;word-spacing:0px;fill:#000000;fill-opacity:1;stroke:none;stroke-width:1px;stroke-linecap:butt;stroke-linejoin:miter;stroke-opacity:1"
     x="9.375"
     y="18.867926"
     id="text4739"
     sodipodi:linespacing="125%"><tspan
       sodipodi:role="line"
       id="tspan4741"
       x="9.375"
       y="18.867926" /></text>
<text
     xml:space="preserve"
     style="font-style:normal;font-weight:normal;font-size:40px;line-height:125%;font-family:sans-serif;letter-spacing:0px;word-spacing:0px;fill:#000000;fill-opacity:1;stroke:none;stroke-width:1px;stroke-linecap:butt;stroke-linejoin:miter;stroke-opacity:1"
     x="-0.94339621"
     y="20.636791"
     id="text4743"
     sodipodi:linespacing="125%"><tspan
       sodipodi:role="line"
       id="tspan4747"
       x="-0.94339621"
       y="20.636791" /></text>
<g
     id="g4257"
     transform="translate(2.0392563,-0.5820693)" /><g
     id="g4883"
     transform="translate(0,-0.80440146)" /><g
     id="g6008"
     transform="translate(0.08338523,5.0031139)" /><g
     id="g6032"
     transform="translate(0.11320757,-0.05896226)"><g
       id="g6014"
       transform="matrix(1.5927843,0,0,1,-3.9611862,14.760813)" /><g
       transform="matrix(1.5927843,0,0,1,-3.9611862,17.137293)"
       id="g6022" /><g
       id="g6026"
       transform="matrix(1.5927843,0,0,1,-3.9611862,19.513772)" /></g><g
     transform="matrix(0.19788972,0,0,0.19788972,5.367385,29.285437)"
     id="g4156"><path
       d="m 100.25981,-82.030257 c 0.7886,-1.682193 1.70896,-3.296442 2.56138,-4.945692 2.20313,1.435115 4.47419,2.765224 6.68554,4.192103 0.49004,0.292376 0.98832,0.714469 1.60191,0.621815 1.70484,-0.150307 3.39321,-0.42827 5.08776,-0.652701 0.42208,-0.0042 0.99655,-0.18119 1.26009,0.269728 0.97597,1.260102 1.90663,2.557266 2.87436,3.825603 2.74669,-0.685644 5.47485,-1.447471 8.23183,-2.096051 0.93891,1.348638 1.85515,2.713748 2.7817,4.068562 -0.0824,0.195605 -0.16472,0.391209 -0.24502,0.586813 -0.13383,0.288259 -0.27179,0.572399 -0.40974,0.858598 0.57241,0.848304 1.13862,1.700726 1.7069,2.553147 -0.34179,1.558655 -0.82153,3.094662 -1.01096,4.682142 0.24502,1.381582 0.67741,2.726102 1.04391,4.080917 -1.80779,-0.475626 -3.59295,-1.03773 -5.40897,-1.476295 -0.99037,1.0995 -1.97457,2.205178 -3.04525,3.226436 0.0165,1.466001 0.009,2.932001 0.009,4.398001 1.62659,1.260102 3.2882,2.476965 4.92717,3.720595 0.75152,-1.048027 1.51952,-2.083697 2.2937,-3.117311 0.72888,0.403563 1.4557,0.81536 2.1743,1.241571 1.43305,-0.539455 2.83934,-1.148916 4.27857,-1.676017 -0.5827,1.505122 -1.40835,2.896999 -2.04869,4.375352 -0.42827,0.846246 -0.006,1.778967 0.13178,2.643742 0.3212,1.731611 0.75771,3.44469 1.00479,5.186595 -0.18532,1.05832 -1.09538,1.832501 -1.3157,2.882586 0.0906,0.267669 0.24913,0.504453 0.4015,0.743296 2.53255,3.730888 4.99305,7.511192 7.51942,11.246199 0.31503,5.223651 0.86272,10.42878 1.20246,15.650373 -2.70345,4.10357 -5.51398,8.13508 -8.20095,12.24894 -0.37474,0.55386 -0.70211,1.23539 -1.40012,1.43305 -4.20652,1.52365 -8.40479,3.06789 -12.6072,4.60184 3.14614,4.85715 6.38906,9.6546 9.61343,14.46235 1.55865,-0.16678 3.13378,-0.16472 4.69656,-0.22237 1.0995,0.60946 1.79337,1.72336 2.78786,2.47696 1.41865,1.36305 2.88465,2.67257 4.26829,4.07268 -0.55181,1.82015 -1.26833,3.5847 -1.88191,5.38426 -1.59779,-0.0107 -3.18525,-0.24091 -4.78304,-0.16473 -3.36438,-0.22236 -6.73907,-0.16883 -10.1014,-0.41797 -0.96772,-0.0246 -1.93339,0 -2.90111,-0.006 -3.72472,-4.956 -7.59767,-9.80285 -11.31415,-14.76708 -5.67253,-0.36238 -11.35738,-0.61152 -17.036084,-0.86889 -0.08028,-0.17501 -0.14207,-0.35414 -0.185306,-0.5374 C 94.802189,9.2058 94.213317,5.6314 93.463839,2.08993 86.835962,-0.50028 80.216307,-3.10695 73.592537,-5.70335 73.127205,-5.8866 72.665992,-6.0925 72.178011,-6.20574 c -0.232665,0.10296 -0.356205,0.34797 -0.514746,0.53533 -1.550419,2.16813 -3.146137,4.30123 -4.717146,6.45494 4.424769,3.78442 8.785708,7.64503 13.179592,11.46651 1.505121,1.43512 3.296441,2.50579 4.993047,3.69589 1.297168,0.92655 2.649923,1.7769 3.93473,2.72404 -1.159208,1.63484 -2.258708,3.31291 -3.454988,4.91892 -5.886646,-0.0206 -11.773298,0.0288 -17.657889,-0.0227 -2.336953,-2.78788 -4.820095,-5.45015 -7.212641,-8.19067 -1.054202,-1.12214 -2.019868,-2.32253 -3.100837,-3.41998 -3.776186,-0.78035 -7.537961,-1.63895 -11.295616,-2.50578 -0.0453,-0.27179 -0.09059,-0.53946 -0.135894,-0.80919 0.01441,-0.0886 0.0453,-0.26561 0.06177,-0.35414 -0.249137,-2.75699 -0.481803,-5.51397 -0.702115,-8.27302 -0.02677,-0.35415 -0.197664,-0.67124 -0.352087,-0.98214 -3.043187,-5.41515 -6.076078,-10.83853 -9.119265,-16.25573 -0.26561,-0.35827 -0.203839,-0.80094 -0.01235,-1.17362 2.740514,-6.199613 5.470735,-12.40335 8.198896,-18.607085 0.100888,-0.350028 0.436506,-0.500334 0.747414,-0.619755 7.696502,-2.73022 15.37859,-5.503679 23.077153,-8.23184 1.11803,0.366499 2.339012,0.34385 3.411745,0.852422 1.430997,0.879187 2.973181,1.552478 4.463889,2.322539 2.380192,1.163329 4.713027,2.42549 7.138517,3.498224 3.559993,1.766613 7.099398,3.574406 10.669679,5.320428 4.437128,-1.824264 8.903081,-3.582641 13.325781,-5.446026 -3.96355,-4.247695 -7.764451,-8.645697 -11.725947,-12.895452 -0.718581,-2.460492 -1.601889,-4.86951 -2.334886,-7.325883 -0.912138,-2.514028 -1.554542,-5.122767 -2.536683,-7.607968 -1.369225,-0.65064 -2.874345,-1.000668 -4.272402,-1.597775 2.367837,-2.429607 4.793327,-4.801564 7.177644,-7.21264 -0.95332,-1.991043 -1.986928,-3.940905 -2.934063,-5.934008 2.627266,0.422093 5.252477,0.864777 7.875635,1.315694 0.333552,0.02471 0.677409,0.162661 1.013026,0.07412 0.428265,-0.422092 0.611519,-1.019199 0.893596,-1.538065 z"
       id="path4142"
       inkscape:connector-curvature="0"
       style="fill:#fefefe" /><path
       d="m 93.526924,79.07332 c 1.297157,-0.38503 2.651978,-0.22032 3.982086,-0.23885 2.058987,-0.0107 4.11591,0.0144 6.17285,-0.0185 0.64857,-0.0144 1.2848,0.11119 1.91486,0.25532 -4.0171,0.24708 -8.052714,0.25118 -12.069796,0.002 z"
       id="path4146"
       inkscape:connector-curvature="0"
       style="fill:#3e2723" /><path
       d="m 76.270529,-115.62679 c 15.444479,-3.76383 31.794921,-3.70824 47.212631,0.16678 16.40602,4.08092 31.71461,12.47542 43.96972,24.123122 10.83851,10.245531 19.29479,22.996853 24.53286,36.962977 4.78302,12.701907 6.91202,26.398305 6.18932,39.952631 -0.58064,11.59212 -3.2882,23.0545 -7.81181,33.7386 -1.05125,-1.27672 -1.71337,-2.50021 -2.568,-3.95517 -21.63718,-32.9193 -39.33911,-60.428885 -56.48587,-91.954615 -0.0514,0.109126 -0.15649,0.32532 -0.21002,0.432388 0.0803,-0.195604 0.16267,-0.391208 0.24502,-0.586813 -0.92655,-1.354814 -1.84279,-2.719924 -2.7817,-4.068562 -2.75698,0.64858 -5.48514,1.410407 -8.23183,2.096051 -0.96773,-1.268337 -1.89839,-2.565501 -2.87436,-3.825603 -0.26354,-0.450918 -0.83801,-0.273845 -1.26009,-0.269728 -1.69455,0.224431 -3.38292,0.502394 -5.08776,0.652701 -0.61359,0.09266 -1.11187,-0.329439 -1.60191,-0.621815 -2.21135,-1.426879 -4.48241,-2.756988 -6.68554,-4.192103 -0.85242,1.64925 -1.77278,3.263499 -2.56138,4.945692 -0.282071,0.518867 -0.465326,1.115973 -0.893592,1.538066 -0.335617,0.08854 -0.679475,-0.04941 -1.013027,-0.07412 -2.623157,-0.450918 -5.248367,-0.893601 -7.875634,-1.315694 0.947135,1.993102 1.980742,3.942965 2.934063,5.934008 -2.384318,2.411076 -4.809807,4.783032 -7.177644,7.21264 1.398056,0.597106 2.903177,0.947135 4.272401,1.597775 0.982142,2.4852 1.624546,5.09394 2.536684,7.607967 0.732997,2.456373 1.616305,4.865391 2.334886,7.325884 3.961495,4.249755 7.762393,8.647756 11.725943,12.895451 -4.4227,1.863385 -8.888649,3.621762 -13.325777,5.446027 -3.570281,-1.746023 -7.109686,-3.553816 -10.669679,-5.320429 -2.425491,-1.072734 -4.758325,-2.334895 -7.138517,-3.498223 -1.490708,-0.770062 -3.032892,-1.443352 -4.463889,-2.32254 -1.072734,-0.508571 -2.293715,-0.485922 -3.411746,-0.852421 -7.698562,2.728161 -15.380651,5.501619 -23.077153,8.231839 -0.310907,0.119421 -0.646523,0.269728 -0.747413,0.619755 -2.728162,6.203736 -5.458382,12.407472 -8.198896,18.607082 -0.191486,0.37268 -0.253257,0.81536 0.01235,1.17362 3.043187,5.4172 6.076078,10.84059 9.119264,16.25572 0.154424,0.31091 0.325321,0.628 0.352088,0.98215 0.220312,2.75904 0.452978,5.51603 0.702115,8.27302 -0.01647,0.0885 -0.04736,0.2656 -0.06177,0.35414 0.0453,0.26972 0.09059,0.53739 0.135894,0.80919 0.831832,0.85447 2.068071,1.57778 2.691946,2.58052 C 63.762365,34.09736 77.104401,55.73979 89.169271,78.73571 87.219426,78.55949 86.43443,78.50204 83.664357,77.96146 69.60558,75.71716 56.065666,70.31438 44.271775,62.34197 32.171093,54.18219 21.923503,43.29631 14.511141,30.72413 5.2333347,15.06756 0.41118173,-3.19566 0.79003557,-21.393016 1.0041704,-34.469659 3.8867552,-47.492768 9.1639461,-59.457555 14.774692,-72.200641 23.11154,-83.739217 33.470316,-93.043791 45.570997,-103.96467 60.424546,-111.80324 76.270529,-115.62679 Z"
       id="path4140"
       inkscape:connector-curvature="0"
       style="fill:#212121;fill-opacity:1"
       sodipodi:nodetypes="cccccccccccccccccccccccccccccccccccccccccccccccccc" /><path
       d="m 131.30938,-76.592465 c 18.83563,30.652175 37.68773,61.291995 56.52955,91.940065 0.84008,1.32391 1.58954,2.70756 2.52432,3.96972 -6.0246,14.24614 -15.53301,26.98512 -27.38456,36.91562 -12.55983,10.54821 -27.79635,17.87822 -43.87912,21.10464 -4.27446,0.88331 -8.61069,1.40835 -12.95721,1.76456 -0.2157,0.004 -0.36651,0.0242 -0.57603,0.0299 -1.80707,0.11273 -2.0258,0.0948 -3.06934,0.10926 -2.13287,0.0329 -2.27581,0.0386 -4.623414,0.003 -1.512392,0.003 -2.001343,-0.0398 -3.9517,-0.15611 -1.43565,-0.0634 -1.547281,-0.0437 -2.373256,-0.10616 -1.562517,-0.13855 -1.636873,-0.16449 -2.381433,-0.24667 l -0.16478,-0.21869 C 75.423371,56.45253 61.898783,34.44645 48.323866,12.38027 47.699991,11.37753 47.162596,10.3048 46.330765,9.45032 c 3.757654,0.86684 7.519428,1.72544 11.295615,2.50579 1.08097,1.09744 2.046635,2.29784 3.100838,3.41998 2.392546,2.74051 4.875687,5.40279 7.21264,8.19066 5.884592,0.0514 11.771243,0.002 17.65789,0.0227 1.196279,-1.60601 2.29578,-3.2841 3.454987,-4.91893 -1.284808,-0.94713 -2.637562,-1.7975 -3.93473,-2.72403 C 83.4214,14.75637 81.630079,13.6857 80.124958,12.25059 75.731074,8.42911 71.370134,4.5685 66.945366,0.78407 c 1.571009,-2.15369 3.166726,-4.2868 4.717145,-6.45493 0.158542,-0.18736 0.282081,-0.43239 0.514747,-0.53532 0.487981,0.11323 0.949194,0.31913 1.414527,0.50238 6.623768,2.59639 13.243424,5.20306 19.871302,7.79328 0.749478,3.54146 1.338349,7.11586 2.04458,10.66557 0.04322,0.18324 0.104977,0.36238 0.185306,0.53739 5.678707,0.25737 11.363557,0.50651 17.036087,0.86889 3.71647,4.96423 7.58943,9.81109 11.31414,14.76707 0.96772,0.006 1.9334,-0.0185 2.90112,0.006 3.36233,0.24915 6.73701,0.19562 10.1014,0.41799 1.59778,-0.0762 3.18525,0.15442 4.78303,0.16471 0.61358,-1.79956 1.33011,-3.5641 1.88192,-5.38426 -1.38364,-1.4001 -2.84965,-2.70962 -4.26829,-4.07267 -0.9945,-0.7536 -1.68836,-1.86751 -2.78786,-2.47696 -1.56279,0.0577 -3.13791,0.0555 -4.69656,0.22236 -3.22438,-4.80774 -6.46729,-9.60519 -9.61343,-14.46234 4.2024,-1.53395 8.40068,-3.07819 12.6072,-4.60184 0.698,-0.19766 1.02538,-0.87919 1.40011,-1.43305 2.68698,-4.11386 5.49751,-8.14538 8.20096,-12.24894 -0.33974,-5.221587 -0.88743,-10.426725 -1.20246,-15.650376 -2.52637,-3.735007 -4.98687,-7.515311 -7.51942,-11.246199 -0.15237,-0.238843 -0.31091,-0.475627 -0.40151,-0.743296 0.22032,-1.050084 1.13039,-1.824265 1.3157,-2.882585 -0.24708,-1.741906 -0.68359,-3.454985 -1.00478,-5.186595 -0.13796,-0.864775 -0.56005,-1.797497 -0.13178,-2.643742 0.64034,-1.478354 1.46599,-2.870231 2.04869,-4.375353 -1.43923,0.527102 -2.84552,1.136562 -4.27857,1.676018 -0.7186,-0.426211 -1.44542,-0.838009 -2.1743,-1.241571 -0.77418,1.033613 -1.54219,2.069285 -2.29371,3.11731 -1.63896,-1.24363 -3.30057,-2.460493 -4.92716,-3.720594 0,-1.466001 0.009,-2.932001 -0.009,-4.398001 1.07068,-1.021259 2.05487,-2.126937 3.04525,-3.226437 1.81602,0.438565 3.60118,1.000669 5.40896,1.476296 -0.3665,-1.354816 -0.79888,-2.699335 -1.04391,-4.080918 0.18943,-1.58748 0.66918,-3.123486 1.01097,-4.682141 -0.56828,-0.852422 -1.1345,-1.704844 -1.7069,-2.553147 0.13795,-0.2862 0.2759,-0.57034 0.40974,-0.858598 0.0536,-0.107068 0.15854,-0.323263 0.21002,-0.432389 z"
       id="path4144"
       inkscape:connector-curvature="0"
       style="fill:#a4a4a4;fill-opacity:1"
       sodipodi:nodetypes="ccccccccccccccccccccccccccccccccccccccccccccccccccccccccccccc" /></g></svg>